<mxfile host="app.diagrams.net" modified="2022-07-07T04:22:49.715Z" agent="5.0 (Windows NT 10.0; Win64; x64) AppleWebKit/537.36 (KHTML, like Gecko) Chrome/101.0.0.0 Safari/537.36" etag="JlbY_QSy7TnQzCda-mLE" version="20.0.4" type="github">
  <diagram id="7xLGgyJst3br1a6myuJQ" name="Page-1">
    <mxGraphModel dx="1422" dy="762" grid="1" gridSize="10" guides="1" tooltips="1" connect="1" arrows="1" fold="1" page="1" pageScale="1" pageWidth="827" pageHeight="1169" math="0" shadow="0">
      <root>
        <mxCell id="0" />
        <mxCell id="1" parent="0" />
        <mxCell id="m5TrZh2OxMoqaNhlM3Lx-5" value="" style="edgeStyle=orthogonalEdgeStyle;rounded=0;orthogonalLoop=1;jettySize=auto;html=1;" edge="1" parent="1" target="m5TrZh2OxMoqaNhlM3Lx-4">
          <mxGeometry relative="1" as="geometry">
            <mxPoint x="240" y="345" as="sourcePoint" />
          </mxGeometry>
        </mxCell>
        <mxCell id="m5TrZh2OxMoqaNhlM3Lx-3" value="" style="sketch=0;outlineConnect=0;fontColor=#232F3E;gradientColor=none;fillColor=#2E27AD;strokeColor=none;dashed=0;verticalLabelPosition=bottom;verticalAlign=top;align=center;html=1;fontSize=12;fontStyle=0;aspect=fixed;pointerEvents=1;shape=mxgraph.aws4.rds_mysql_instance;" vertex="1" parent="1">
          <mxGeometry x="156" y="306" width="78" height="78" as="geometry" />
        </mxCell>
        <mxCell id="m5TrZh2OxMoqaNhlM3Lx-4" value="" style="sketch=0;outlineConnect=0;fontColor=#232F3E;gradientColor=none;fillColor=#2E27AD;strokeColor=none;dashed=0;verticalLabelPosition=bottom;verticalAlign=top;align=center;html=1;fontSize=12;fontStyle=0;aspect=fixed;pointerEvents=1;shape=mxgraph.aws4.rds_mysql_instance;" vertex="1" parent="1">
          <mxGeometry x="314" y="306" width="78" height="78" as="geometry" />
        </mxCell>
        <mxCell id="m5TrZh2OxMoqaNhlM3Lx-8" style="edgeStyle=orthogonalEdgeStyle;rounded=0;orthogonalLoop=1;jettySize=auto;html=1;entryX=0.5;entryY=0;entryDx=0;entryDy=0;" edge="1" parent="1">
          <mxGeometry relative="1" as="geometry">
            <mxPoint x="185" y="142" as="sourcePoint" />
            <mxPoint x="185" y="190" as="targetPoint" />
          </mxGeometry>
        </mxCell>
        <mxCell id="m5TrZh2OxMoqaNhlM3Lx-6" value="" style="sketch=0;aspect=fixed;pointerEvents=1;shadow=0;dashed=0;html=1;strokeColor=none;labelPosition=center;verticalLabelPosition=bottom;verticalAlign=top;align=center;fillColor=#00188D;shape=mxgraph.mscae.enterprise.client_application" vertex="1" parent="1">
          <mxGeometry x="170" y="110" width="50" height="32" as="geometry" />
        </mxCell>
        <mxCell id="m5TrZh2OxMoqaNhlM3Lx-9" style="rounded=0;orthogonalLoop=1;jettySize=auto;html=1;" edge="1" parent="1">
          <mxGeometry relative="1" as="geometry">
            <mxPoint x="187.5" y="257.9" as="sourcePoint" />
            <mxPoint x="188" y="304" as="targetPoint" />
          </mxGeometry>
        </mxCell>
        <object label="&lt;b&gt;VIP&lt;/b&gt;" VIP="" id="m5TrZh2OxMoqaNhlM3Lx-7">
          <mxCell style="rounded=1;whiteSpace=wrap;html=1;fillColor=#f0a30a;fontColor=#000000;strokeColor=#BD7000;" vertex="1" parent="1">
            <mxGeometry x="135" y="190" width="120" height="60" as="geometry" />
          </mxCell>
        </object>
        <mxCell id="m5TrZh2OxMoqaNhlM3Lx-11" value="begin;&lt;br&gt;update order where&amp;nbsp;&amp;nbsp;&lt;br&gt;commit;" style="text;html=1;strokeColor=none;fillColor=none;align=center;verticalAlign=middle;whiteSpace=wrap;rounded=0;" vertex="1" parent="1">
          <mxGeometry x="300" y="110" width="380" height="50" as="geometry" />
        </mxCell>
        <mxCell id="m5TrZh2OxMoqaNhlM3Lx-12" value="&lt;b&gt;&lt;font color=&quot;#66b2ff&quot;&gt;Master&lt;/font&gt;&lt;/b&gt;" style="text;html=1;strokeColor=none;fillColor=none;align=center;verticalAlign=middle;whiteSpace=wrap;rounded=0;" vertex="1" parent="1">
          <mxGeometry x="160" y="350" width="40" height="20" as="geometry" />
        </mxCell>
        <mxCell id="m5TrZh2OxMoqaNhlM3Lx-13" value="&lt;font style=&quot;font-size: 8px;&quot; color=&quot;#66b2ff&quot;&gt;&lt;b style=&quot;&quot;&gt;Backup&lt;/b&gt;&lt;/font&gt;" style="text;html=1;strokeColor=none;fillColor=none;align=center;verticalAlign=middle;whiteSpace=wrap;rounded=0;" vertex="1" parent="1">
          <mxGeometry x="319" y="350" width="40" height="20" as="geometry" />
        </mxCell>
        <mxCell id="m5TrZh2OxMoqaNhlM3Lx-15" style="rounded=0;orthogonalLoop=1;jettySize=auto;html=1;" edge="1" parent="1">
          <mxGeometry relative="1" as="geometry">
            <mxPoint x="210" y="301" as="sourcePoint" />
            <mxPoint x="210" y="255" as="targetPoint" />
          </mxGeometry>
        </mxCell>
        <mxCell id="m5TrZh2OxMoqaNhlM3Lx-16" value="" style="edgeStyle=orthogonalEdgeStyle;rounded=0;orthogonalLoop=1;jettySize=auto;html=1;" edge="1" parent="1">
          <mxGeometry relative="1" as="geometry">
            <mxPoint x="304" y="369" as="sourcePoint" />
            <mxPoint x="240" y="369" as="targetPoint" />
          </mxGeometry>
        </mxCell>
        <mxCell id="m5TrZh2OxMoqaNhlM3Lx-17" style="edgeStyle=orthogonalEdgeStyle;rounded=0;orthogonalLoop=1;jettySize=auto;html=1;" edge="1" parent="1">
          <mxGeometry relative="1" as="geometry">
            <mxPoint x="205" y="188" as="sourcePoint" />
            <mxPoint x="205" y="142" as="targetPoint" />
          </mxGeometry>
        </mxCell>
        <mxCell id="m5TrZh2OxMoqaNhlM3Lx-18" value="1" style="ellipse;whiteSpace=wrap;html=1;aspect=fixed;strokeWidth=2;fontFamily=Tahoma;spacingBottom=4;spacingRight=2;strokeColor=#d3d3d3;fontSize=8;fontColor=#66B2FF;" vertex="1" parent="1">
          <mxGeometry x="160" y="150" width="20" height="20" as="geometry" />
        </mxCell>
        <mxCell id="m5TrZh2OxMoqaNhlM3Lx-19" value="2" style="ellipse;whiteSpace=wrap;html=1;aspect=fixed;strokeWidth=2;fontFamily=Tahoma;spacingBottom=4;spacingRight=2;strokeColor=#d3d3d3;fontSize=8;fontColor=#66B2FF;" vertex="1" parent="1">
          <mxGeometry x="160" y="270" width="20" height="20" as="geometry" />
        </mxCell>
        <mxCell id="m5TrZh2OxMoqaNhlM3Lx-21" value="3" style="ellipse;whiteSpace=wrap;html=1;aspect=fixed;strokeWidth=2;fontFamily=Tahoma;spacingBottom=4;spacingRight=2;strokeColor=#d3d3d3;fontSize=8;fontColor=#66B2FF;" vertex="1" parent="1">
          <mxGeometry x="270" y="320" width="20" height="20" as="geometry" />
        </mxCell>
        <mxCell id="m5TrZh2OxMoqaNhlM3Lx-22" value="4" style="ellipse;whiteSpace=wrap;html=1;aspect=fixed;strokeWidth=2;fontFamily=Tahoma;spacingBottom=4;spacingRight=2;strokeColor=#d3d3d3;fontSize=8;fontColor=#66B2FF;" vertex="1" parent="1">
          <mxGeometry x="270" y="380" width="20" height="20" as="geometry" />
        </mxCell>
        <mxCell id="m5TrZh2OxMoqaNhlM3Lx-23" value="5" style="ellipse;whiteSpace=wrap;html=1;aspect=fixed;strokeWidth=2;fontFamily=Tahoma;spacingBottom=4;spacingRight=2;strokeColor=#d3d3d3;fontSize=8;fontColor=#66B2FF;" vertex="1" parent="1">
          <mxGeometry x="220" y="274" width="20" height="20" as="geometry" />
        </mxCell>
        <mxCell id="m5TrZh2OxMoqaNhlM3Lx-24" value="6" style="ellipse;whiteSpace=wrap;html=1;aspect=fixed;strokeWidth=2;fontFamily=Tahoma;spacingBottom=4;spacingRight=2;strokeColor=#d3d3d3;fontSize=8;fontColor=#66B2FF;" vertex="1" parent="1">
          <mxGeometry x="214" y="153" width="20" height="20" as="geometry" />
        </mxCell>
      </root>
    </mxGraphModel>
  </diagram>
</mxfile>
